TITLE ""
FILE "2Q_t_0835-0852.mp3" MP3
  TRACK 01 AUDIO
    TITLE "2Q_t_0835-0852_01"
    INDEX 01 00:00:00
  TRACK 02 AUDIO
    TITLE "2Q_t_0835-0852_02"
    INDEX 01 00:01:08
  TRACK 03 AUDIO
    TITLE "2Q_t_0835-0852_03"
    INDEX 01 00:01:53
  TRACK 04 AUDIO
    TITLE "2Q_t_0835-0852_04"
    INDEX 01 00:02:46
  TRACK 05 AUDIO
    TITLE "2Q_t_0835-0852_05"
    INDEX 01 00:03:15
  TRACK 06 AUDIO
    TITLE "2Q_t_0835-0852_06"
    INDEX 01 00:04:45
  TRACK 07 AUDIO
    TITLE "2Q_t_0835-0852_07"
    INDEX 01 00:05:23
  TRACK 08 AUDIO
    TITLE "2Q_t_0835-0852_08"
    INDEX 01 00:06:48
  TRACK 09 AUDIO
    TITLE "2Q_t_0835-0852_09"
    INDEX 01 00:07:18
  TRACK 10 AUDIO
    TITLE "2Q_t_0835-0852_10"
    INDEX 01 00:08:22
  TRACK 11 AUDIO
    TITLE "2Q_t_0835-0852_11"
    INDEX 01 00:08:67
  TRACK 12 AUDIO
    TITLE "2Q_t_0835-0852_12"
    INDEX 01 00:10:01
  TRACK 13 AUDIO
    TITLE "2Q_t_0835-0852_13"
    INDEX 01 00:10:44
  TRACK 14 AUDIO
    TITLE "2Q_t_0835-0852_14"
    INDEX 01 00:12:04
  TRACK 15 AUDIO
    TITLE "2Q_t_0835-0852_15"
    INDEX 01 00:12:55
  TRACK 16 AUDIO
    TITLE "2Q_t_0835-0852_16"
    INDEX 01 00:14:71
  TRACK 17 AUDIO
    TITLE "2Q_t_0835-0852_17"
    INDEX 01 00:15:39
  TRACK 18 AUDIO
    TITLE "2Q_t_0835-0852_18"
    INDEX 01 00:16:74
  TRACK 19 AUDIO
    TITLE "2Q_t_0835-0852_19"
    INDEX 01 00:17:46
  TRACK 20 AUDIO
    TITLE "2Q_t_0835-0852_20"
    INDEX 01 00:18:75
  TRACK 21 AUDIO
    TITLE "2Q_t_0835-0852_21"
    INDEX 01 00:19:43
  TRACK 22 AUDIO
    TITLE "2Q_t_0835-0852_22"
    INDEX 01 00:20:33
  TRACK 23 AUDIO
    TITLE "2Q_t_0835-0852_23"
    INDEX 01 00:21:12
  TRACK 24 AUDIO
    TITLE "2Q_t_0835-0852_24"
    INDEX 01 00:24:15
  TRACK 25 AUDIO
    TITLE "2Q_t_0835-0852_25"
    INDEX 01 00:24:60
  TRACK 26 AUDIO
    TITLE "2Q_t_0835-0852_26"
    INDEX 01 00:25:59
  TRACK 27 AUDIO
    TITLE "2Q_t_0835-0852_27"
    INDEX 01 00:26:33
  TRACK 28 AUDIO
    TITLE "2Q_t_0835-0852_28"
    INDEX 01 00:27:52
  TRACK 29 AUDIO
    TITLE "2Q_t_0835-0852_29"
    INDEX 01 00:28:22
  TRACK 30 AUDIO
    TITLE "2Q_t_0835-0852_30"
    INDEX 01 00:29:22
  TRACK 31 AUDIO
    TITLE "2Q_t_0835-0852_31"
    INDEX 01 00:30:02
  TRACK 32 AUDIO
    TITLE "2Q_t_0835-0852_32"
    INDEX 01 00:32:75
  TRACK 33 AUDIO
    TITLE "2Q_t_0835-0852_33"
    INDEX 01 00:33:45
  TRACK 34 AUDIO
    TITLE "2Q_t_0835-0852_34"
    INDEX 01 00:34:48
  TRACK 35 AUDIO
    TITLE "2Q_t_0835-0852_35"
    INDEX 01 00:35:22
  TRACK 36 AUDIO
    TITLE "2Q_t_0835-0852_36"
    INDEX 01 00:36:28
  TRACK 37 AUDIO
    TITLE "2Q_t_0835-0852_37"
    INDEX 01 00:36:71
  TRACK 38 AUDIO
    TITLE "2Q_t_0835-0852_38"
    INDEX 01 00:38:23
  TRACK 39 AUDIO
    TITLE "2Q_t_0835-0852_39"
    INDEX 01 00:38:70
  TRACK 40 AUDIO
    TITLE "2Q_t_0835-0852_40"
    INDEX 01 00:40:73
  TRACK 41 AUDIO
    TITLE "2Q_t_0835-0852_41"
    INDEX 01 00:41:45
  TRACK 42 AUDIO
    TITLE "2Q_t_0835-0852_42"
    INDEX 01 00:42:52
  TRACK 43 AUDIO
    TITLE "2Q_t_0835-0852_43"
    INDEX 01 00:43:28
  TRACK 44 AUDIO
    TITLE "2Q_t_0835-0852_44"
    INDEX 01 00:45:36
  TRACK 45 AUDIO
    TITLE "2Q_t_0835-0852_45"
    INDEX 01 00:46:06
  TRACK 46 AUDIO
    TITLE "2Q_t_0835-0852_46"
    INDEX 01 00:47:06
  TRACK 47 AUDIO
    TITLE "2Q_t_0835-0852_47"
    INDEX 01 00:47:57
  TRACK 48 AUDIO
    TITLE "2Q_t_0835-0852_48"
    INDEX 01 00:48:49
  TRACK 49 AUDIO
    TITLE "2Q_t_0835-0852_49"
    INDEX 01 00:49:19
  TRACK 50 AUDIO
    TITLE "2Q_t_0835-0852_50"
    INDEX 01 00:50:42
  TRACK 51 AUDIO
    TITLE "2Q_t_0835-0852_51"
    INDEX 01 00:51:21
  TRACK 52 AUDIO
    TITLE "2Q_t_0835-0852_52"
    INDEX 01 00:53:59
  TRACK 53 AUDIO
    TITLE "2Q_t_0835-0852_53"
    INDEX 01 00:54:28
  TRACK 54 AUDIO
    TITLE "2Q_t_0835-0852_54"
    INDEX 01 00:55:54
  TRACK 55 AUDIO
    TITLE "2Q_t_0835-0852_55"
    INDEX 01 00:56:28
  TRACK 56 AUDIO
    TITLE "2Q_t_0835-0852_56"
    INDEX 01 00:58:39
  TRACK 57 AUDIO
    TITLE "2Q_t_0835-0852_57"
    INDEX 01 00:59:09
  TRACK 58 AUDIO
    TITLE "2Q_t_0835-0852_58"
    INDEX 01 01:00:26
  TRACK 59 AUDIO
    TITLE "2Q_t_0835-0852_59"
    INDEX 01 01:00:73
  TRACK 60 AUDIO
    TITLE "2Q_t_0835-0852_60"
    INDEX 01 01:03:23
  TRACK 61 AUDIO
    TITLE "2Q_t_0835-0852_61"
    INDEX 01 01:03:68
  TRACK 62 AUDIO
    TITLE "2Q_t_0835-0852_62"
    INDEX 01 01:04:75
  TRACK 63 AUDIO
    TITLE "2Q_t_0835-0852_63"
    INDEX 01 01:05:51
  TRACK 64 AUDIO
    TITLE "2Q_t_0835-0852_64"
    INDEX 01 01:07:64
  TRACK 65 AUDIO
    TITLE "2Q_t_0835-0852_65"
    INDEX 01 01:08:34
  TRACK 66 AUDIO
    TITLE "2Q_t_0835-0852_66"
    INDEX 01 01:09:60
  TRACK 67 AUDIO
    TITLE "2Q_t_0835-0852_67"
    INDEX 01 01:10:38
  TRACK 68 AUDIO
    TITLE "2Q_t_0835-0852_68"
    INDEX 01 01:14:44
  TRACK 69 AUDIO
    TITLE "2Q_t_0835-0852_69"
    INDEX 01 01:15:14
  TRACK 70 AUDIO
    TITLE "2Q_t_0835-0852_70"
    INDEX 01 01:16:19
  TRACK 71 AUDIO
    TITLE "2Q_t_0835-0852_71"
    INDEX 01 01:16:66
  TRACK 72 AUDIO
    TITLE "2Q_t_0835-0852_72"
    INDEX 01 01:18:55
